
<global>
amp_veltrack=0
ampeg_attack=0.01
ampeg_release=0.35
</global>

<group>
group_label=Group_0-42
xfin_hicc1=42
xfout_hicc1=84
xfout_locc1=42

<region>
hikey=B1
hivel=127
lokey=A#1
lovel=1
offset=10568
pitch_keycenter=A#1
sample=Cimbasso_marcato_eighth_PP_A#2.opus
tune=-8
</region>

<region>
hikey=B2
hivel=127
lokey=A#2
lovel=1
offset=961
pitch_keycenter=A#2
sample=Cimbasso_marcato_eighth_PP_A#3.opus
tune=-1
</region>

<region>
hikey=C4
hivel=127
lokey=A#3
lovel=1
offset=5030
pitch_keycenter=A#3
sample=Cimbasso_marcato_eighth_PP_A#4.opus
tune=+6
</region>

<region>
hikey=C#2
hivel=127
lokey=C2
lovel=1
offset=4981
pitch_keycenter=C2
sample=Cimbasso_marcato_eighth_PP_C3.opus
</region>

<region>
hikey=C#3
hivel=127
lokey=C3
lovel=1
offset=7114
pitch_keycenter=C3
sample=Cimbasso_marcato_eighth_PP_C4.opus
tune=-25
</region>

<region>
hikey=D#2
hivel=127
lokey=D2
lovel=1
offset=2922
pitch_keycenter=D2
sample=Cimbasso_marcato_eighth_PP_D3.opus
tune=-6
</region>

<region>
hikey=D#3
hivel=127
lokey=D3
lovel=1
offset=1264
pitch_keycenter=D3
sample=Cimbasso_marcato_eighth_PP_D4.opus
tune=-21
</region>

<region>
hikey=F1
hivel=127
lokey=E1
lovel=1
offset=7737
pitch_keycenter=E1
sample=Cimbasso_marcato_eighth_PP_E2.opus
tune=+7
</region>

<region>
hikey=F2
hivel=127
lokey=E2
lovel=1
offset=3669
pitch_keycenter=E2
sample=Cimbasso_marcato_eighth_PP_E3.opus
tune=+12
</region>

<region>
hikey=F3
hivel=127
lokey=E3
lovel=1
offset=5185
pitch_keycenter=E3
sample=Cimbasso_marcato_eighth_PP_E4.opus
tune=-6
</region>

<region>
hikey=G1
hivel=127
lokey=F#1
lovel=1
offset=7006
pitch_keycenter=F#1
sample=Cimbasso_marcato_eighth_PP_F#2.opus
tune=+4
</region>

<region>
hikey=G2
hivel=127
lokey=F#2
lovel=1
offset=4292
pitch_keycenter=F#2
sample=Cimbasso_marcato_eighth_PP_F#3.opus
tune=+35
</region>

<region>
hikey=G3
hivel=127
lokey=F#3
lovel=1
offset=5565
pitch_keycenter=F#3
sample=Cimbasso_marcato_eighth_PP_F#4.opus
tune=-4
</region>

<region>
hikey=A1
hivel=127
lokey=G#1
lovel=1
offset=8851
pitch_keycenter=G#1
sample=Cimbasso_marcato_eighth_PP_G#2.opus
tune=+24
</region>

<region>
hikey=A2
hivel=127
lokey=G#2
lovel=1
offset=991
pitch_keycenter=G#2
sample=Cimbasso_marcato_eighth_PP_G#3.opus
tune=+7
</region>

<region>
hikey=A3
hivel=127
lokey=G#3
lovel=1
offset=1491
pitch_keycenter=G#3
sample=Cimbasso_marcato_eighth_PP_G#4.opus
tune=+4
</region>
</group>

<group>
group_label=Group_43-84
xfin_hicc1=84
xfin_locc1=43
xfout_hicc1=125
xfout_locc1=84

<region>
hikey=B1
hivel=127
lokey=A#1
lovel=1
offset=914
pitch_keycenter=A#1
sample=Cimbasso_marcato_eighth_MF_A#2.opus
tune=-1
</region>

<region>
hikey=B2
hivel=127
lokey=A#2
lovel=1
offset=90
pitch_keycenter=A#2
sample=Cimbasso_marcato_eighth_MF_A#3.opus
tune=-1
</region>

<region>
hikey=C4
hivel=127
lokey=A#3
lovel=1
offset=1732
pitch_keycenter=A#3
sample=Cimbasso_marcato_eighth_MF_A#4.opus
</region>

<region>
hikey=C#2
hivel=127
lokey=C2
lovel=1
offset=833
pitch_keycenter=C2
sample=Cimbasso_marcato_eighth_MF_C3.opus
tune=-1
</region>

<region>
hikey=C#3
hivel=127
lokey=C3
lovel=1
offset=994
pitch_keycenter=C3
sample=Cimbasso_marcato_eighth_MF_C4.opus
tune=-2
</region>

<region>
hikey=D#2
hivel=127
lokey=D2
lovel=1
offset=1070
pitch_keycenter=D2
sample=Cimbasso_marcato_eighth_MF_D3.opus
</region>

<region>
hikey=D#3
hivel=127
lokey=D3
lovel=1
offset=1155
pitch_keycenter=D3
sample=Cimbasso_marcato_eighth_MF_D4.opus
tune=-2
</region>

<region>
hikey=F1
hivel=127
lokey=E1
lovel=1
offset=2029
pitch_keycenter=E1
sample=Cimbasso_marcato_eighth_MF_E2.opus
tune=-2
</region>

<region>
hikey=F2
hivel=127
lokey=E2
lovel=1
offset=763
pitch_keycenter=E2
sample=Cimbasso_marcato_eighth_MF_E3.opus
</region>

<region>
hikey=F3
hivel=127
lokey=E3
lovel=1
offset=937
pitch_keycenter=E3
sample=Cimbasso_marcato_eighth_MF_E4.opus
tune=+1
</region>

<region>
hikey=G1
hivel=127
lokey=F#1
lovel=1
offset=11758
pitch_keycenter=F#1
sample=Cimbasso_marcato_eighth_MF_F#2.opus
</region>

<region>
hikey=G2
hivel=127
lokey=F#2
lovel=1
offset=2157
pitch_keycenter=F#2
sample=Cimbasso_marcato_eighth_MF_F#3.opus
tune=-2
</region>

<region>
hikey=G3
hivel=127
lokey=F#3
lovel=1
offset=1567
pitch_keycenter=F#3
sample=Cimbasso_marcato_eighth_MF_F#4.opus
tune=-1
</region>

<region>
hikey=A1
hivel=127
lokey=G#1
lovel=1
offset=3961
pitch_keycenter=G#1
sample=Cimbasso_marcato_eighth_MF_G#2.opus
tune=-3
</region>

<region>
hikey=A2
hivel=127
lokey=G#2
lovel=1
offset=905
pitch_keycenter=G#2
sample=Cimbasso_marcato_eighth_MF_G#3.opus
tune=-2
</region>

<region>
hikey=A3
hivel=127
lokey=G#3
lovel=1
offset=1508
pitch_keycenter=G#3
sample=Cimbasso_marcato_eighth_MF_G#4.opus
tune=-2
</region>
</group>

<group>
group_label=Group_85-127
xfin_hicc1=127
xfin_locc1=85
xfout_hicc1=127
xfout_locc1=127

<region>
hikey=B1
hivel=127
lokey=A#1
lovel=1
offset=1249
pitch_keycenter=A#1
sample=Cimbasso_marcato_eighth_FF_A#2.opus
</region>

<region>
hikey=B2
hivel=127
lokey=A#2
lovel=1
offset=871
pitch_keycenter=A#2
sample=Cimbasso_marcato_eighth_FF_A#3.opus
tune=-1
</region>

<region>
hikey=C4
hivel=127
lokey=A#3
lovel=1
offset=1151
pitch_keycenter=A#3
sample=Cimbasso_marcato_eighth_FF_A#4.opus
tune=-1
</region>

<region>
hikey=C#2
hivel=127
lokey=C2
lovel=1
offset=1641
pitch_keycenter=C2
sample=Cimbasso_marcato_eighth_FF_C3.opus
</region>

<region>
hikey=C#3
hivel=127
lokey=C3
lovel=1
offset=627
pitch_keycenter=C3
sample=Cimbasso_marcato_eighth_FF_C4.opus
</region>

<region>
hikey=D#2
hivel=127
lokey=D2
lovel=1
offset=21
pitch_keycenter=D2
sample=Cimbasso_marcato_eighth_FF_D3.opus
tune=-1
</region>

<region>
hikey=D#3
hivel=127
lokey=D3
lovel=1
offset=728
pitch_keycenter=D3
sample=Cimbasso_marcato_eighth_FF_D4.opus
tune=-1
</region>

<region>
hikey=F1
hivel=127
lokey=E1
lovel=1
offset=10968
pitch_keycenter=E1
sample=Cimbasso_marcato_eighth_FF_E2.opus
tune=-2
</region>

<region>
hikey=F2
hivel=127
lokey=E2
lovel=1
offset=669
pitch_keycenter=E2
sample=Cimbasso_marcato_eighth_FF_E3.opus
</region>

<region>
hikey=F3
hivel=127
lokey=E3
lovel=1
offset=434
pitch_keycenter=E3
sample=Cimbasso_marcato_eighth_FF_E4.opus
tune=-1
</region>

<region>
hikey=G1
hivel=127
lokey=F#1
lovel=1
offset=2063
pitch_keycenter=F#1
sample=Cimbasso_marcato_eighth_FF_F#2.opus
</region>

<region>
hikey=G2
hivel=127
lokey=F#2
lovel=1
offset=550
pitch_keycenter=F#2
sample=Cimbasso_marcato_eighth_FF_F#3.opus
tune=-1
</region>

<region>
hikey=G3
hivel=127
lokey=F#3
lovel=1
offset=1355
pitch_keycenter=F#3
sample=Cimbasso_marcato_eighth_FF_F#4.opus
tune=-1
</region>

<region>
hikey=A1
hivel=127
lokey=G#1
lovel=1
offset=1780
pitch_keycenter=G#1
sample=Cimbasso_marcato_eighth_FF_G#2.opus
tune=+1
</region>

<region>
hikey=A2
hivel=127
lokey=G#2
lovel=1
offset=648
pitch_keycenter=G#2
sample=Cimbasso_marcato_eighth_FF_G#3.opus
tune=-2
</region>

<region>
hikey=A3
hivel=127
lokey=G#3
lovel=1
offset=925
pitch_keycenter=G#3
sample=Cimbasso_marcato_eighth_FF_G#4.opus
tune=-1
</region>
</group>